<svg viewBox="0 0 400 300" xmlns="http://www.w3.org/2000/svg"><path d="m263.12 126s-29.21-28.13-50-34.16-103.24.92-106 2.68-19.29 19.84-22.5 27.13-3 18.33-2.3 21.84a13.16 13.16 0 0 0 1.61 4.78s-5-.25-5.51 2.51 0 19.59 0 23.1 2.76 6 6.2 6.78 42.93 0 42.93 0 3.21 4.78 4.59 4.78h187.91c4.13 0-.23-5.78-1.38-5.78 0 0 2.76-21.1 1.15-22.35l-1.61-1.31a12.26 12.26 0 0 0 -5.28-10.8c-5.93-4.02-23.57-11.77-49.81-19.2z" fill="#68e1fd"/><path d="m320.05 186.39h-187.92c-1.48 0-3.54-2.5-5.11-4.77-6 .12-39.29.7-42.62 0-4.18-.91-7-4-7-7.76 0-.89 0-2.65-.06-4.83-.15-8.58-.25-16.45.08-18.44.37-2.24 2.81-3.09 4.91-3.3a21.15 21.15 0 0 1 -1-3.62c-.68-3.49-1-14.89 2.37-22.45s19.84-25.63 22.87-27.56c2-1.24 26.71-3.39 46.71-4.42 17.3-.88 48.12-1.84 60.09 1.62 20.19 5.85 47.55 31.63 50.26 34.22 25.37 7.23 43.37 14.92 49.86 19.29a13.15 13.15 0 0 1 5.75 11.16l1.2.94c1.34 1.05 1.11 8.64-.68 22.55 1.43 1 3 3.44 3 5a2.12 2.12 0 0 1 -.75 1.71 3 3 0 0 1 -1.96.66zm-192.51-6.78a1 1 0 0 1 .83.45c1.45 2.15 3.24 4.17 3.82 4.33h187.86c.07 0 .69 0 .73-.2.19-.95-1.56-3.26-2.24-3.59a1 1 0 0 1 -.86-1.12c1.23-9.41 2.09-19.93 1.43-21.51l-1.51-1.18a1 1 0 0 1 -.38-.89 11.18 11.18 0 0 0 -4.85-9.87c-6.21-4.18-24.36-11.95-49.52-19.12a1 1 0 0 1 -.42-.24c-.29-.28-29.28-28-49.61-33.92-21.12-6.11-102.4 1.25-105.21 2.59-2.61 1.66-19.02 19.71-22.08 26.66-3.16 7.14-2.88 17.95-2.23 21.25a13 13 0 0 0 1.44 4.39 1 1 0 0 1 .05 1.06 1 1 0 0 1 -.92.52c-1.08-.06-4.22.14-4.47 1.67-.33 2-.16 12.05-.06 18.08 0 2.19.07 4 .07 4.86 0 2.81 2.13 5.09 5.41 5.81 2.73.59 31.75.18 42.7 0z" fill="#093f68"/><path d="m186.73 127.08-3.45-29.64s22.27 2 34.67 6 25.25 13.56 27.55 18.11 1.84 8.29 0 9-58.77-3.47-58.77-3.47z" fill="#fff"/><path d="m243.88 131.64c-8.61 0-42-2.42-57.23-3.57a1 1 0 0 1 -.92-.88l-3.44-29.63a1 1 0 0 1 .28-.82 1 1 0 0 1 .8-.29c.92.08 22.53 2.06 34.89 6.07 12.05 3.91 25.54 13.48 28.13 18.58 1.6 3.14 2.08 6.28 1.29 8.4a3.31 3.31 0 0 1 -1.8 2 9 9 0 0 1 -2 .14zm-56.25-5.5c22.28 1.67 55.42 3.92 57.58 3.5a1.53 1.53 0 0 0 .6-.84c.46-1.23.38-3.67-1.2-6.79-2.12-4.17-14.65-13.6-27-17.59-10.49-3.4-28.4-5.38-33.22-5.86z" fill="#093f68"/><path d="m242.33 135.11c-.73-.05 1.61-17.64 1.61-17.64s7.57 2.26 9.87 7.77-1.15 10.56-11.48 9.87z" fill="#093f68"/><path d="m244.12 136.17q-.9 0-1.86-.06a1.13 1.13 0 0 1 -.74-.39c-.33-.39-.87-1.06 1.42-18.38a1 1 0 0 1 .45-.7 1 1 0 0 1 .83-.12c.33.09 8.06 2.45 10.51 8.33a7.51 7.51 0 0 1 -.48 7.49c-1.79 2.5-5.35 3.83-10.13 3.83zm-.94-2c4.6.18 7.93-.87 9.44-3a5.59 5.59 0 0 0 .26-5.55c-1.58-3.79-6-6-8.11-6.79-.84 6.45-1.57 13.17-1.59 15.32z" fill="#093f68"/><path d="m176.86 126.32-1.38-28.88s-42.7 0-46.61 2-16.52 12.07-16.07 16.56 7.58 5.27 9.65 6.53 54.41 3.79 54.41 3.79z" fill="#fff"/><path d="m176.86 127.32h-.05c-12.34-.59-52.76-2.62-54.88-3.91a14.4 14.4 0 0 0 -2.3-.88c-3-1-7.42-2.44-7.82-6.4-.54-5.35 13-15.71 16.61-17.57 4-2.06 42.66-2.12 47.06-2.12a1 1 0 0 1 1 1l1.37 28.89a1 1 0 0 1 -1 1zm-2.33-28.88c-17.08 0-42.54.53-45.2 1.9-4.3 2.22-15.9 12-15.53 15.59.27 2.67 3.7 3.79 6.45 4.7a14.38 14.38 0 0 1 2.75 1.07c2.07.84 32.32 2.58 52.83 3.57z" fill="#093f68"/><circle cx="124.15" cy="178.61" fill="#093f68" r="23.76"/><path d="m124.15 203.38a24.77 24.77 0 1 1 24.77-24.77 24.79 24.79 0 0 1 -24.77 24.77zm0-47.53a22.77 22.77 0 1 0 22.77 22.76 22.79 22.79 0 0 0 -22.77-22.76z" fill="#093f68"/><circle cx="124.15" cy="178.61" fill="#68e1fd" r="13.61"/><path d="m124.15 193.22a14.61 14.61 0 1 1 14.61-14.61 14.62 14.62 0 0 1 -14.61 14.61zm0-27.21a12.61 12.61 0 1 0 12.61 12.6 12.61 12.61 0 0 0 -12.61-12.61z" fill="#093f68"/><circle cx="261.94" cy="178.61" fill="#093f68" r="23.76"/><path d="m261.94 203.38a24.77 24.77 0 1 1 24.77-24.77 24.79 24.79 0 0 1 -24.77 24.77zm0-47.53a22.77 22.77 0 1 0 22.77 22.76 22.79 22.79 0 0 0 -22.77-22.76z" fill="#093f68"/><circle cx="261.94" cy="178.61" fill="#68e1fd" r="13.61"/><path d="m261.94 193.22a14.61 14.61 0 1 1 14.61-14.61 14.62 14.62 0 0 1 -14.61 14.61zm0-27.21a12.61 12.61 0 1 0 12.61 12.6 12.61 12.61 0 0 0 -12.61-12.61z" fill="#093f68"/><path d="m88.76 124.12a45 45 0 0 0 -2.28 6.55c-.94 5.52-1 11-.4 11.51s6.43.39 7.12 0 5.43-9 6-10.86 1.8-5.67.71-6.43-10.08-1.84-11.15-.77z" fill="#ffbc0e"/><path d="m89.17 143.53c-3.07 0-3.52-.4-3.75-.59-1.7-1.49.06-12.33.08-12.44a44.63 44.63 0 0 1 2.34-6.77 1 1 0 0 1 .21-.31c1.56-1.56 11.2-.24 12.47.65s1.17 3.08-.33 7.56c-.39 1.18-5.27 10.74-6.51 11.43a13.47 13.47 0 0 1 -4.06.47zm-2.35-2.13a25.16 25.16 0 0 0 5.84-.09 77.08 77.08 0 0 0 5.63-10.31c1.35-4 1.13-5.1 1-5.31-1.29-.65-8.26-1.36-9.78-.87a40.07 40.07 0 0 0 -2.08 6 39.81 39.81 0 0 0 -.61 10.58z" fill="#093f68"/><path d="m313.58 157.52s-.52-5.94-3.5-7.55-14.53-6.23-15.32-4.16 5.05 9.41 6.54 10.67 12.28 1.04 12.28 1.04z" fill="#ffbc0e"/><g fill="#093f68"><path d="m311.18 158.54c-3.82 0-9.23-.2-10.53-1.29-.91-.78-8-8.84-6.83-11.8a1.7 1.7 0 0 1 1.05-1c3.05-1.13 14 3.7 15.68 4.62 3.37 1.81 4 7.68 4 8.34a1 1 0 0 1 -.25.75 1 1 0 0 1 -.73.34zm-15.51-12.24c-.08 1.57 4.38 7.81 6.28 9.42.79.58 5.85.86 10.49.81-.33-1.86-1.16-4.78-2.84-5.68-3.67-1.98-12.23-5.02-13.93-4.55z"/><path d="m90.21 152.41h-6.29a1 1 0 1 1 0-2h6.29a1 1 0 1 1 0 2z"/><path d="m209.33 138.38h-11.82a1 1 0 0 1 0-2h11.82a1 1 0 1 1 0 2z"/><path d="m169.52 138.38h-11.82a1 1 0 0 1 0-2h11.82a1 1 0 0 1 0 2z"/><path d="m185.09 183.86a1 1 0 0 1 -1-1v-42.42c0-1.45-4.09-8-8.05-13.53a1 1 0 0 1 1.63-1.17c1.4 2 8.42 11.89 8.42 14.7v42.42a1 1 0 0 1 -1 1z"/></g><path d="m137.76 115.06a1 1 0 0 1 -.86-.49 1 1 0 0 1 .35-1.37l19.95-11.73a1 1 0 1 1 1 1.72l-19.94 11.73a1 1 0 0 1 -.5.14z" fill="#dfeaef"/><path d="m151 121.07a1 1 0 0 1 -.84-.46 1 1 0 0 1 .29-1.38l12.6-8.19a1 1 0 0 1 1.09 1.68l-12.6 8.19a1 1 0 0 1 -.54.16z" fill="#dfeaef"/><path d="m197.51 123a1 1 0 0 1 -.66-1.75l15.44-13.84a1 1 0 1 1 1.34 1.49l-15.45 13.85a1 1 0 0 1 -.67.25z" fill="#dfeaef"/><path d="m217.74 125.14a1 1 0 0 1 -.72-.31 1 1 0 0 1 0-1.41l9-8.64a1 1 0 0 1 1.42 0 1 1 0 0 1 0 1.41l-9 8.64a1 1 0 0 1 -.7.31z" fill="#dfeaef"/></svg>