<?xml version="1.0" encoding="utf-8"?><svg version="1.1" id="Layer_1" xmlns="http://www.w3.org/2000/svg" xmlns:xlink="http://www.w3.org/1999/xlink" x="0px" y="0px" viewBox="0 0 104.9 122.88" style="enable-background:new 0 0 104.9 122.88" xml:space="preserve"><style type="text/css">.st0{fill-rule:evenodd;clip-rule:evenodd;}</style><g><path class="st0" d="M52.5,0C64.3,0,73.86,9.46,73.86,21.14c0,11.67-9.56,21.14-21.36,21.14c-11.8,0-21.36-9.46-21.36-21.14 C31.14,9.46,40.7,0,52.5,0L52.5,0z M74.61,64.75l16.72,12.69c8.01,6.08,18.75-4.67,10.75-10.75L74.61,45.85v-0.1l-44.2,0v0.02 l-0.02-0.02L2.82,66.79c-7.99,6.1,2.76,16.85,10.75,10.75l16.84-12.85l0,28.69h2.29v21.91c0,4.18,3.42,7.6,7.6,7.6 c4.18,0,7.6-3.42,7.6-7.6V93.37h9.21v21.91c0,4.18,3.42,7.6,7.6,7.6c4.18,0,7.6-3.42,7.6-7.6V93.37h2.29V64.75L74.61,64.75 L74.61,64.75z"/></g></svg>