<?xml version="1.0" encoding="utf-8"?><svg version="1.1" id="Layer_1" xmlns="http://www.w3.org/2000/svg" xmlns:xlink="http://www.w3.org/1999/xlink" x="0px" y="0px" viewBox="0 0 113.5 122.88" style="enable-background:new 0 0 113.5 122.88" xml:space="preserve"><style type="text/css">.st0{fill-rule:evenodd;clip-rule:evenodd;}</style><g><path class="st0" d="M101.71,56.76h-5.54v16.51h5.55v0.02c1.14,0,2.19-0.49,2.96-1.26l0.14-0.13c0.68-0.75,1.1-1.73,1.1-2.8 l-0.01,0v-0.03h0.01v-8.1h-0.01v-0.02l0.01,0c0-1.15-0.48-2.2-1.24-2.96c-0.76-0.76-1.81-1.24-2.95-1.25v0.01H101.71L101.71,56.76 L101.71,56.76z M31.66,0.61c1.75-1.16,4.08-0.63,5.2,1.17c1.12,1.8,0.61,4.21-1.14,5.37c-3.19,2.11-3.21,3.75-2.23,5.22 c0.84,1.27,2.14,2.66,3.43,4.03c1.79,1.91,3.59,3.82,4.82,6.03c2.93,5.23,2.67,10.43-6.55,15.59c-1.82,1.02-4.11,0.33-5.1-1.55 c-0.99-1.88-0.32-4.24,1.5-5.26c3.85-2.15,4.34-3.66,3.63-4.92c-0.74-1.31-2.22-2.89-3.7-4.47c-1.53-1.63-3.07-3.27-4.26-5.07 C23.83,11.54,23.21,6.2,31.66,0.61L31.66,0.61z M74.07,0.61c1.75-1.16,4.08-0.63,5.2,1.17c1.12,1.8,0.61,4.21-1.14,5.37 c-3.19,2.11-3.2,3.75-2.23,5.22c0.84,1.27,2.14,2.66,3.43,4.03c1.79,1.91,3.59,3.82,4.82,6.03c2.93,5.23,2.68,10.43-6.54,15.59 c-1.82,1.02-4.11,0.33-5.1-1.55c-0.99-1.88-0.32-4.24,1.5-5.26c3.85-2.15,4.33-3.65,3.62-4.92c-0.74-1.31-2.22-2.89-3.7-4.47 c-1.53-1.63-3.07-3.27-4.26-5.07C66.24,11.53,65.61,6.2,74.07,0.61L74.07,0.61z M52.87,0.61c1.75-1.16,4.08-0.63,5.2,1.17 c1.12,1.8,0.61,4.21-1.14,5.37c-3.19,2.11-3.21,3.75-2.23,5.22c0.84,1.27,2.14,2.66,3.43,4.03c1.79,1.91,3.59,3.82,4.82,6.03 c2.93,5.23,2.68,10.43-6.54,15.59c-1.82,1.02-4.11,0.33-5.1-1.55c-0.99-1.88-0.32-4.24,1.5-5.26c3.85-2.15,4.33-3.66,3.62-4.92 c-0.74-1.31-2.22-2.89-3.7-4.47c-1.53-1.63-3.08-3.27-4.26-5.07C45.03,11.54,44.42,6.2,52.87,0.61L52.87,0.61z M1.42,112.34h36.12 c-12.25-6.13-20.72-18.8-20.72-33.37V48.92h74.58v0.39c0.32-0.09,0.66-0.13,1.01-0.13l9.35,0v0.02h0.02 c3.22,0.01,6.14,1.32,8.26,3.44c2.13,2.12,3.46,5.07,3.47,8.31l0.01,0v0.02h-0.01v7.96l0,0.14h0.01v0.03h-0.01v0.02 c-0.01,3.08-1.22,5.9-3.18,7.99c-0.08,0.1-0.17,0.19-0.26,0.28c-2.12,2.12-5.07,3.44-8.32,3.45v0.02l-9.34,0 c-0.36,0-0.72-0.06-1.05-0.15c-0.63,13.84-8.9,25.77-20.67,31.65h38.15c0.78,0,1.42,0.76,1.42,1.7v7.15c0,0.94-0.64,1.69-1.42,1.69 l-107.4,0c-0.78,0-1.42-0.76-1.42-1.69v-7.15C0,113.1,0.64,112.34,1.42,112.34L1.42,112.34L1.42,112.34z"/></g></svg>