<svg xmlns="http://www.w3.org/2000/svg" xmlns:xlink="http://www.w3.org/1999/xlink" width="499" zoomAndPan="magnify" viewBox="0 0 374.25 271.500006" height="362" preserveAspectRatio="xMidYMid meet" version="1.0"><defs><clipPath id="b70fbf8c1b"><path d="M 166.371094 101.308594 L 372.957031 101.308594 L 372.957031 270.472656 L 166.371094 270.472656 Z M 166.371094 101.308594 " clip-rule="nonzero"/></clipPath><clipPath id="33bc5bf89e"><path d="M 0.0507812 0.0234375 L 206.636719 0.0234375 L 206.636719 169.183594 L 0.0507812 169.183594 Z M 0.0507812 0.0234375 " clip-rule="nonzero"/></clipPath><clipPath id="3a22d597e9"><path d="M 0 147.882812 L 206.585938 147.882812 L 206.585938 270.472656 L 0 270.472656 Z M 0 147.882812 " clip-rule="nonzero"/></clipPath><clipPath id="216cd4fc3b"><path d="M 166.371094 0.0234375 L 372.957031 0.0234375 L 372.957031 117.535156 L 166.371094 117.535156 Z M 166.371094 0.0234375 " clip-rule="nonzero"/></clipPath><clipPath id="effa9e2cfa"><path d="M 62.359375 0.0234375 L 283.164062 0.0234375 L 283.164062 11.25 L 62.359375 11.25 Z M 62.359375 0.0234375 " clip-rule="nonzero"/></clipPath><clipPath id="e71f8cfcda"><path d="M 88.925781 259.570312 L 309.734375 259.570312 L 309.734375 270.800781 L 88.925781 270.800781 Z M 88.925781 259.570312 " clip-rule="nonzero"/></clipPath><clipPath id="a8ec8e6bd7"><path d="M 0.75 31.15625 L 11.226562 31.15625 L 11.226562 244.476562 L 0.75 244.476562 Z M 0.75 31.15625 " clip-rule="nonzero"/></clipPath><clipPath id="a64d8354c5"><path d="M 361.277344 23.671875 L 372.507812 23.671875 L 372.507812 244.476562 L 361.277344 244.476562 Z M 361.277344 23.671875 " clip-rule="nonzero"/></clipPath><clipPath id="c8c632c66b"><path d="M 31.453125 127.085938 L 175.164062 127.085938 L 175.164062 270.800781 L 31.453125 270.800781 Z M 31.453125 127.085938 " clip-rule="nonzero"/></clipPath><clipPath id="a0a3017215"><path d="M 206.613281 5.636719 L 350.328125 5.636719 L 350.328125 149.347656 L 206.613281 149.347656 Z M 206.613281 5.636719 " clip-rule="nonzero"/></clipPath><clipPath id="eb9e5f2177"><path d="M 7 0.0234375 L 366 0.0234375 L 366 270.980469 L 7 270.980469 Z M 7 0.0234375 " clip-rule="nonzero"/></clipPath></defs><g clip-path="url(#b70fbf8c1b)"><path fill="#000000" d="M 196.390625 101.308594 L 342.9375 101.308594 C 359.421875 101.308594 372.910156 114.78125 372.910156 131.230469 L 372.910156 240.550781 C 372.910156 256.984375 359.398438 270.472656 342.9375 270.472656 L 196.390625 270.472656 C 179.90625 270.472656 166.417969 256.992188 166.417969 240.550781 L 166.417969 131.230469 C 166.417969 114.761719 179.890625 101.308594 196.390625 101.308594 Z M 255.359375 193.617188 L 239.007812 193.617188 L 239.007812 215.890625 L 219.773438 215.890625 L 219.773438 155.886719 L 259.207031 155.886719 L 256.800781 171.25 L 239.007812 171.25 L 239.007812 179.3125 L 255.359375 179.3125 Z M 319.554688 215.890625 L 298.394531 215.890625 L 290.511719 198.035156 L 286.378906 198.035156 L 286.378906 215.890625 L 267.140625 215.890625 L 267.140625 155.886719 L 297.4375 155.886719 C 311.222656 155.886719 318.113281 162.894531 318.113281 176.914062 C 318.113281 186.515625 315.132812 192.851562 309.167969 195.921875 Z M 286.378906 171.25 L 286.378906 183.246094 L 290.796875 183.246094 C 293.109375 183.246094 294.789062 183.011719 295.847656 182.53125 C 296.90625 182.050781 297.4375 180.949219 297.4375 179.21875 L 297.4375 175.28125 C 297.4375 173.554688 296.90625 172.449219 295.847656 171.972656 C 294.789062 171.488281 293.109375 171.25 290.796875 171.25 Z M 286.378906 171.25 " fill-opacity="1" fill-rule="evenodd"/></g><g clip-path="url(#33bc5bf89e)"><path fill="#000000" d="M 30.066406 0.0234375 L 176.617188 0.0234375 C 193.101562 0.0234375 206.589844 13.492188 206.589844 29.941406 L 206.589844 139.261719 C 206.589844 155.695312 193.078125 169.183594 176.617188 169.183594 L 30.066406 169.183594 C 13.582031 169.183594 0.09375 155.703125 0.09375 139.261719 L 0.09375 29.941406 C 0.09375 13.472656 13.566406 0.0234375 30.066406 0.0234375 Z M 137.226562 113.804688 C 135.519531 111.328125 121.722656 88.574219 121.597656 88.574219 L 121.597656 113.804688 L 102.875 113.804688 L 102.875 55.398438 L 120.472656 55.398438 C 122.160156 57.84375 135.648438 80.628906 136.105469 80.628906 L 136.105469 55.398438 L 154.824219 55.398438 L 154.824219 113.804688 Z M 89.300781 91.75 L 70.582031 91.75 L 70.582031 98.851562 L 93.511719 98.851562 L 93.511719 113.804688 L 51.859375 113.804688 L 51.859375 55.398438 L 93.046875 55.398438 L 90.707031 70.351562 L 70.582031 70.351562 L 70.582031 78.199219 L 89.300781 78.199219 Z M 89.300781 91.75 " fill-opacity="1" fill-rule="evenodd"/></g><g clip-path="url(#3a22d597e9)"><path fill="#000000" d="M 30.019531 101.308594 L 176.566406 101.308594 C 193.050781 101.308594 206.539062 114.78125 206.539062 131.230469 L 206.539062 240.550781 C 206.539062 256.984375 193.027344 270.472656 176.566406 270.472656 L 30.019531 270.472656 C 13.53125 270.472656 0.046875 256.992188 0.046875 240.550781 L 0.046875 131.230469 C 0.046875 114.761719 13.519531 101.308594 30.019531 101.308594 Z M 88.988281 193.617188 L 72.636719 193.617188 L 72.636719 215.890625 L 53.402344 215.890625 L 53.402344 155.886719 L 92.835938 155.886719 L 90.425781 171.25 L 72.636719 171.25 L 72.636719 179.3125 L 88.988281 179.3125 Z M 153.183594 215.890625 L 132.023438 215.890625 L 124.140625 198.035156 L 120.007812 198.035156 L 120.007812 215.890625 L 100.769531 215.890625 L 100.769531 155.886719 L 131.066406 155.886719 C 144.851562 155.886719 151.742188 162.894531 151.742188 176.914062 C 151.742188 186.515625 148.761719 192.851562 142.796875 195.921875 Z M 120.007812 171.25 L 120.007812 183.246094 L 124.425781 183.246094 C 126.738281 183.246094 128.417969 183.011719 129.476562 182.53125 C 130.535156 182.050781 131.066406 180.949219 131.066406 179.21875 L 131.066406 175.28125 C 131.066406 173.554688 130.535156 172.449219 129.476562 171.972656 C 128.417969 171.488281 126.738281 171.25 124.425781 171.25 Z M 120.007812 171.25 " fill-opacity="1" fill-rule="evenodd"/></g><g clip-path="url(#216cd4fc3b)"><path fill="#000000" d="M 196.390625 0.0234375 L 342.9375 0.0234375 C 359.421875 0.0234375 372.910156 13.492188 372.910156 29.941406 L 372.910156 139.261719 C 372.910156 155.695312 359.398438 169.183594 342.9375 169.183594 L 196.390625 169.183594 C 179.90625 169.183594 166.417969 155.703125 166.417969 139.261719 L 166.417969 29.941406 C 166.417969 13.472656 179.890625 0.0234375 196.390625 0.0234375 Z M 255.359375 92.332031 L 239.007812 92.332031 L 239.007812 114.601562 L 219.773438 114.601562 L 219.773438 54.597656 L 259.207031 54.597656 L 256.800781 69.960938 L 239.007812 69.960938 L 239.007812 78.027344 L 255.359375 78.027344 Z M 319.554688 114.601562 L 298.394531 114.601562 L 290.511719 96.746094 L 286.378906 96.746094 L 286.378906 114.601562 L 267.140625 114.601562 L 267.140625 54.597656 L 297.4375 54.597656 C 311.222656 54.597656 318.113281 61.609375 318.113281 75.625 C 318.113281 85.230469 315.132812 91.5625 309.167969 94.632812 Z M 286.378906 69.960938 L 286.378906 81.960938 L 290.796875 81.960938 C 293.109375 81.960938 294.789062 81.722656 295.847656 81.242188 C 296.90625 80.765625 297.4375 79.660156 297.4375 77.929688 L 297.4375 73.992188 C 297.4375 72.265625 296.90625 71.160156 295.847656 70.683594 C 294.789062 70.199219 293.109375 69.960938 290.796875 69.960938 Z M 286.378906 69.960938 " fill-opacity="1" fill-rule="evenodd"/></g><g clip-path="url(#effa9e2cfa)"><path fill="#000000" d="M 62.359375 11.25 L 62.359375 0.0234375 L 283.179688 0.0234375 L 283.179688 11.25 Z M 62.359375 11.25 " fill-opacity="1" fill-rule="nonzero"/></g><g clip-path="url(#e71f8cfcda)"><path fill="#000000" d="M 88.925781 270.800781 L 88.925781 259.570312 L 309.75 259.570312 L 309.75 270.800781 Z M 88.925781 270.800781 " fill-opacity="1" fill-rule="nonzero"/></g><g clip-path="url(#a8ec8e6bd7)"><path fill="#000000" d="M 0.75 31.15625 L 11.226562 31.15625 L 11.226562 244.460938 L 0.75 244.460938 Z M 0.75 31.15625 " fill-opacity="1" fill-rule="nonzero"/></g><g clip-path="url(#a64d8354c5)"><path fill="#000000" d="M 361.277344 23.671875 L 372.507812 23.671875 L 372.507812 244.492188 L 361.277344 244.492188 Z M 361.277344 23.671875 " fill-opacity="1" fill-rule="nonzero"/></g><g clip-path="url(#c8c632c66b)"><path fill="#000000" d="M 31.453125 127.085938 L 175.164062 127.085938 L 175.164062 270.800781 L 31.453125 270.800781 Z M 31.453125 127.085938 " fill-opacity="1" fill-rule="nonzero"/></g><g clip-path="url(#a0a3017215)"><path fill="#000000" d="M 206.613281 5.636719 L 350.328125 5.636719 L 350.328125 149.347656 L 206.613281 149.347656 Z M 206.613281 5.636719 " fill-opacity="1" fill-rule="nonzero"/></g><g clip-path="url(#eb9e5f2177)"><path stroke-linecap="butt" transform="matrix(0.596969, -0.451531, 0.451531, 0.596969, 51.898518, 232.049607)" fill="none" stroke-linejoin="miter" d="M 0.00165597 5.499739 L 442.601961 5.500275 " stroke="#ffffff" stroke-width="11" stroke-opacity="1" stroke-miterlimit="4"/></g></svg>