<svg height="256" preserveAspectRatio="xMidYMid" viewBox="0 0 256 256" width="256" xmlns="http://www.w3.org/2000/svg"><circle cx="128" cy="128" fill="#f05537" r="128"/><path d="m117.475323 82.7290398c19.297105-4.2882455 38.594209 3.5735379 49.314823 18.5823972l-85.2884381 19.297105c2.8588303-18.344162 16.6765102-33.5912567 35.9736151-37.8795022zm49.791295 70.7560502c-6.670604 9.767671-16.914746 16.676511-28.588304 19.297105-19.297104 4.288246-38.8324448-3.573538-49.5530586-18.820633l85.5266736-19.297105 13.81768-3.097066 26.682417-5.955896c-.238236-5.717661-.952944-11.435322-2.144123-16.914746-10.720614-45.9795215-57.653078-74.8060606-104.585543-64.0854469-46.9324644 10.7206138-76.2354752 56.4618989-65.2766256 102.6796559 10.9588495 46.217757 57.6530786 74.80606 104.5855426 64.085446 27.63536-6.194132 49.076587-24.776529 60.035437-48.361879z" fill="#fff"/></svg>