<svg xmlns="http://www.w3.org/2000/svg" shape-rendering="geometricPrecision" text-rendering="geometricPrecision" image-rendering="optimizeQuality" fill-rule="evenodd" clip-rule="evenodd" viewBox="0 0 512 420.17"><path d="M74.32 0h363.36C478.55 0 512 33.46 512 74.32v271.53c0 40.82-33.5 74.32-74.32 74.32H74.32C33.44 420.17 0 386.69 0 345.85V74.32C0 33.41 33.41 0 74.32 0zm146.21 229.28h-40.54v55.32H132.3V135.56h97.77l-5.97 38.16h-44.11v20.03h40.54v35.53zM379.7 284.6h-52.46l-19.55-44.35h-10.25v44.35h-47.7V135.56h75.12c34.18 0 51.27 17.41 51.27 52.23 0 23.85-7.39 39.58-22.18 47.21l25.75 49.6zm-82.26-110.88v29.8h10.96c5.73 0 9.9-.59 12.52-1.78 2.63-1.19 3.94-3.93 3.94-8.23v-9.78c0-4.29-1.31-7.03-3.94-8.22-2.62-1.2-6.79-1.79-12.52-1.79h-10.96z"/></svg>