<?xml version="1.0" encoding="utf-8"?><svg version="1.1" id="Layer_1" xmlns="http://www.w3.org/2000/svg" xmlns:xlink="http://www.w3.org/1999/xlink" x="0px" y="0px" viewBox="0 0 122.88 93.4" style="enable-background:new 0 0 122.88 93.4" xml:space="preserve"><style type="text/css"><![CDATA[
	.st0{fill-rule:evenodd;clip-rule:evenodd;}
]]></style><g><path class="st0" d="M10.52,93.4V53.83c-2.14,0.82-4.14,0.84-5.8,0.27c-1.3-0.44-2.39-1.22-3.2-2.24c-0.8-1.01-1.32-2.25-1.47-3.61 c-0.24-2.11,0.39-4.5,2.19-6.73l0,0c0.09-0.11,0.19-0.22,0.31-0.31L59.98,0.5c0.68-0.62,1.72-0.69,2.47-0.1L120,41.03l0,0 c0.08,0.06,0.16,0.13,0.23,0.21c2.42,2.6,3.02,5.49,2.44,7.93c-0.29,1.21-0.87,2.28-1.66,3.18s-1.81,1.59-2.96,2 c-1.83,0.66-4,0.64-6.2-0.4V93.4h-5.12V51.7c0-0.92-41.14-29.26-45.1-32.34c-4.19,3.19-45.99,31.29-45.99,32.48V93.4H10.52 L10.52,93.4z M23.56,93.39c0-16.84,13.79-7.52,15-17.85c0.13-1.12-2.52-5.41-3.13-7.47c-1.3-2.08-1.77-5.37-0.34-7.56 c0.56-0.87,0.32-4.05,0.32-5.25c0-3.39,1.6-5.33,3.77-7.15c0.79-0.66,0.93-1.45,2.08-1.73c5.71-1.38,15.05,1.76,15.05,8.89 c0,1.51-0.35,4.28,0.47,5.47c0.79,1.15,0.89,2.82,0.6,4.38c-0.31,0.24-0.62,0.5-0.92,0.77c-0.68,0.6-1.36,1.27-2.03,2 c-0.03,0.03-0.07,0.06-0.1,0.09c-0.32,0.32-0.56,0.72-0.69,1.19c-0.27,1,0.35,2.01,1.07,2.66c-0.84,1.57-1.88,3.06-1.75,3.72 c0.21,1.06,1,2.04,2.12,2.93v0.02c0,0.06,0.01,0.11,0.01,0.17c0.04,0.39,0.1,0.76,0.19,1.09c0.1,0.37,0.24,0.73,0.41,1.07 c0.3,0.59,0.7,1.11,1.21,1.51c0.25,0.2,0.53,0.38,0.83,0.52c0.08,0.09,0.15,0.18,0.23,0.26l0.13,0.15 c-2.32,0.44-3.94,0.86-5.3,2.21c-1.51,1.49-2.08,3.59-2.08,7.37c0,0.19,0.02,0.38,0.04,0.55L23.56,93.39L23.56,93.39L23.56,93.39z M72.32,64.54c2.86-16.86,19.33-16.46,21.81,1.21c1.63,11.63,8.6,11.21-2.29,11.21H87.5c-0.02,2.96-0.48,4.47,2.59,6.14 c3.07,1.66,9.23,2.51,9.23,6.72v2.69c0,0.22-0.18,0.39-0.39,0.39H81.95v-0.06c0-3.78-0.58-5.88-2.08-7.37 c-1.19-1.17-2.57-1.64-4.45-2.04c0.37-0.17,0.72-0.36,1.05-0.55c2.7-1.62,2.24-3.25,2.22-5.93h-1.18 c-0.02-0.14-0.04-0.27-0.07-0.39h-0.01c-0.13-0.59-0.34-1.16-0.64-1.67c-0.05-0.09-0.11-0.18-0.16-0.26v-0.39 c0.36-1.34,0.46-2.82,0.22-4.19c-0.26-1.54-0.93-2.99-2.08-4.07c-0.59-0.56-1.25-0.97-1.97-1.26 C72.65,64.65,72.49,64.59,72.32,64.54L72.32,64.54L72.32,64.54z M57.35,69.85c4.08-4.51,8.8-6.95,12.33-2.95 c0.93,0.04,1.76,0.35,2.45,1c1.45,1.37,1.68,3.93,1.02,5.96v1.77c0.45,0.3,0.74,0.85,0.87,1.48c0.09,0.41,0.11,0.86,0.06,1.28 c-0.04,0.44-0.15,0.87-0.33,1.22c-0.25,0.5-0.63,0.85-1.16,0.93c-0.51,0.55-1.01,1.12-1.46,1.68c-0.49,0.62-0.91,1.19-1.19,1.68 c-0.22,0.37-0.15,0.61-0.07,0.88c0.04,0.14,0.08,0.28,0.11,0.43c0.9,0.19,1.7,0.34,2.43,0.48c4.6,0.86,6.04,1.13,6.04,7.13 c0,0.3-0.25,0.55-0.55,0.55H55.06c-0.31,0-0.55-0.25-0.55-0.55c0-6,1.43-6.26,6.04-7.13c0.73-0.14,1.55-0.29,2.44-0.48 c0.03-0.12,0.07-0.23,0.11-0.34c0.09-0.26,0.18-0.53-0.09-0.97c-0.29-0.48-0.71-1.06-1.19-1.68c-0.44-0.56-0.95-1.14-1.45-1.68 c-0.52-0.08-0.91-0.43-1.16-0.93c-0.18-0.34-0.29-0.78-0.33-1.22c-0.04-0.43-0.02-0.88,0.06-1.28c0.13-0.63,0.42-1.18,0.86-1.48 l-0.6-0.36C59.04,73.52,59.51,70.44,57.35,69.85L57.35,69.85L57.35,69.85L57.35,69.85z M96.28,3.25l15.69,0.64v21.19L96.28,14.72 V3.25L96.28,3.25L96.28,3.25z"/></g></svg>