<svg xmlns="http://www.w3.org/2000/svg" shape-rendering="geometricPrecision" text-rendering="geometricPrecision" image-rendering="optimizeQuality" fill-rule="evenodd" clip-rule="evenodd" viewBox="0 0 512 420.165"><path d="M74.316 0h363.368c20.398 0 38.963 8.366 52.425 21.816h.075C503.634 35.266 512 53.862 512 74.316v271.533c0 20.398-8.366 38.963-21.816 52.426l-.075.074c-13.462 13.45-32.027 21.816-52.425 21.816H74.316c-20.454 0-39.05-8.366-52.5-21.816l-1.065-1.164C7.926 383.822 0 365.702 0 345.849V74.316c0-20.454 8.366-39.05 21.816-52.5C35.266 8.366 53.862 0 74.316 0zm171.611 283.285H119.668v-29.282l59.966-78.239-.704-1.401h-49.189l-4.217-37.483h119.467v29.282l-59.268 78.239.704 1.408h59.5v37.476zm99.553 0V231.52h-35.132v51.765h-46.851V136.88h46.851v51.772h35.132V136.88h46.852v146.405H345.48z"/></svg>