<?xml version="1.0" standalone="no"?>
<!DOCTYPE svg PUBLIC "-//W3C//DTD SVG 20010904//EN"
 "http://www.w3.org/TR/2001/REC-SVG-20010904/DTD/svg10.dtd">
<svg version="1.0" xmlns="http://www.w3.org/2000/svg"
 width="561.000000pt" height="157.000000pt" viewBox="0 0 561.000000 157.000000"
 preserveAspectRatio="xMidYMid meet">

<g transform="translate(0.000000,157.000000) scale(0.100000,-0.100000)"
fill="#000000" stroke="none">
<path d="M2414 1508 c-146 -31 -167 -247 -30 -309 107 -48 220 9 241 123 22
117 -86 213 -211 186z m96 -73 c39 -20 58 -81 40 -125 -28 -68 -109 -82 -162
-30 -28 28 -30 36 -25 78 9 79 75 114 147 77z"/>
<path d="M2670 1480 c0 -29 2 -30 45 -30 l45 0 0 -130 0 -130 35 0 35 0 0 130
0 130 50 0 c49 0 50 1 50 30 l0 30 -130 0 -130 0 0 -30z"/>
<path d="M2970 1480 c0 -29 1 -30 50 -30 l50 0 0 -130 0 -130 35 0 35 0 0 130
0 130 51 0 c49 0 50 1 47 28 l-3 27 -132 3 -133 3 0 -31z"/>
<path d="M3356 1502 c-2 -4 -27 -66 -55 -137 -28 -72 -56 -140 -61 -152 -9
-21 -7 -23 25 -23 30 0 37 5 49 35 15 35 15 35 81 35 66 0 66 0 81 -35 12 -31
19 -35 49 -35 l35 0 -13 33 c-7 17 -36 89 -63 160 l-49 127 -37 0 c-20 0 -39
-3 -42 -8z m69 -142 l14 -40 -44 0 -45 0 20 53 c11 28 20 54 20 57 1 10 21
-31 35 -70z"/>
<path d="M3570 1501 c0 -5 9 -37 19 -72 11 -35 31 -104 46 -152 l27 -88 41 3
41 3 30 103 c16 56 33 99 36 95 4 -5 20 -52 35 -105 l28 -98 42 0 41 0 42 144
c23 80 45 152 48 160 5 13 -1 16 -29 16 -25 0 -37 -5 -41 -17 -2 -10 -17 -63
-32 -117 -15 -55 -30 -93 -33 -85 -3 8 -19 59 -36 114 l-30 100 -36 3 -36 3
-34 -115 c-18 -64 -36 -111 -40 -105 -4 6 -19 58 -35 115 l-28 104 -33 0 c-18
0 -33 -4 -33 -9z"/>
<path d="M4121 1355 c-34 -86 -61 -158 -61 -161 0 -2 15 -4 34 -4 30 0 36 4
46 35 l12 35 68 0 68 0 12 -35 c10 -31 15 -35 46 -35 42 0 44 -14 -32 180
l-53 135 -39 3 -40 3 -61 -156z m118 34 c7 -23 15 -47 18 -55 4 -11 -5 -14
-36 -14 -23 0 -41 3 -41 6 0 14 35 104 41 104 3 0 11 -18 18 -41z"/>
<path d="M92 1477 c-20 -21 -22 -34 -22 -133 0 -103 2 -112 23 -132 l23 -22
724 0 724 0 28 27 c27 26 28 30 28 133 0 98 -2 108 -23 128 l-23 22 -730 0
-731 0 -21 -23z"/>
<path d="M2371 928 c-59 -40 -76 -72 -76 -143 0 -68 15 -99 67 -138 54 -41
162 -31 208 18 l23 24 -24 19 c-23 19 -24 19 -51 -1 -43 -32 -96 -26 -130 12
-80 89 33 223 126 150 24 -19 30 -20 52 -9 32 18 30 34 -8 61 -49 35 -142 38
-187 7z"/>
<path d="M2720 931 c-86 -46 -111 -160 -53 -247 25 -39 97 -67 154 -62 122 12
188 141 128 248 -42 74 -151 103 -229 61z m130 -56 c37 -19 50 -43 50 -92 -1
-69 -58 -110 -127 -91 -42 11 -63 42 -63 93 0 83 68 127 140 90z"/>
<path d="M3045 938 c-3 -8 -4 -81 -3 -163 l3 -150 33 -3 32 -3 0 113 c0 126 4
126 47 6 l28 -78 36 0 37 0 31 81 c17 44 32 86 33 92 1 7 4 -37 7 -98 l6 -110
33 -3 32 -3 0 165 0 166 -48 0 -47 0 -41 -107 -41 -107 -40 104 -41 105 -46 3
c-32 2 -48 -1 -51 -10z"/>
<path d="M3490 785 l0 -166 33 3 32 3 3 105 4 105 32 -85 33 -85 38 0 38 0 36
95 36 95 3 -117 3 -118 29 0 30 0 0 166 0 165 -47 -3 -47 -3 -40 -104 c-22
-57 -41 -100 -43 -95 -2 5 -20 52 -41 104 l-37 95 -48 3 -47 3 0 -166z"/>
<path d="M3930 830 c0 -90 4 -129 16 -151 28 -55 121 -76 190 -43 54 26 64 56
64 194 l0 120 -29 0 -29 0 -3 -115 c-5 -131 -13 -147 -74 -147 -61 0 -70 16
-73 147 l-4 115 -29 0 -29 0 0 -120z"/>
<path d="M4290 784 l0 -165 33 3 32 3 5 99 5 98 78 -101 c69 -90 82 -102 105
-99 l27 3 3 163 2 162 -34 0 -35 0 -3 -102 -3 -102 -78 102 c-68 89 -82 102
-108 102 l-29 0 0 -166z"/>
<path d="M4670 785 l0 -166 33 3 32 3 0 160 0 160 -32 3 -33 3 0 -166z"/>
<path d="M4794 936 c-14 -36 0 -51 48 -54 l47 -3 3 -127 3 -127 33 -3 32 -3 0
130 0 130 48 3 c45 3 47 4 50 36 l3 32 -131 0 c-104 0 -132 -3 -136 -14z"/>
<path d="M5110 942 c0 -4 27 -50 60 -102 57 -90 60 -98 60 -157 l0 -63 30 0
30 0 0 65 c0 61 3 69 56 151 74 114 74 114 30 114 -33 0 -38 -4 -73 -65 -21
-35 -40 -65 -43 -65 -3 0 -22 30 -43 65 -35 60 -40 65 -72 65 -19 0 -35 -4
-35 -8z"/>
<path d="M612 917 c-20 -21 -22 -34 -22 -133 0 -169 -51 -154 511 -154 l465 0
27 28 c26 27 27 33 27 127 0 94 -1 100 -27 127 l-27 28 -466 0 -467 0 -21 -23z"/>
<path d="M160 379 c-62 -26 -100 -85 -100 -157 0 -57 27 -104 80 -140 46 -31
130 -28 179 8 37 26 71 90 71 135 0 45 -34 109 -70 135 -37 27 -119 36 -160
19z"/>
<path d="M2304 377 c-2 -7 -3 -80 -2 -162 l3 -150 33 -3 32 -3 0 65 0 66 80 0
80 0 0 35 0 35 -80 0 -80 0 0 30 0 30 85 0 85 0 0 35 0 35 -115 0 c-85 0 -117
-3 -121 -13z"/>
<path d="M2690 379 c-61 -25 -100 -85 -100 -155 0 -61 31 -115 82 -144 51 -29
139 -25 185 8 63 45 84 144 47 218 -35 67 -139 103 -214 73z m105 -63 c40 -17
55 -42 55 -94 0 -77 -72 -122 -138 -88 -38 20 -52 44 -52 91 0 48 15 74 53 90
40 18 41 18 82 1z"/>
<path d="M3007 384 c-13 -13 -8 -213 7 -247 24 -57 50 -72 127 -72 64 0 71 2
101 33 l33 32 3 131 4 130 -34 -3 -33 -3 -5 -115 c-3 -63 -8 -120 -12 -126
-23 -35 -114 -20 -123 20 -3 11 -6 66 -8 121 -2 99 -2 100 -27 103 -14 2 -29
0 -33 -4z"/>
<path d="M3365 378 c-3 -8 -4 -81 -3 -163 l3 -150 33 -3 32 -3 0 107 0 107 80
-106 c71 -94 84 -107 110 -107 l30 0 0 166 0 165 -32 -3 -33 -3 -5 -99 -5 -99
-75 99 c-59 78 -81 100 -103 102 -16 2 -29 -2 -32 -10z"/>
<path d="M3740 225 l0 -167 93 4 c143 6 201 53 201 163 0 108 -61 156 -206
163 l-88 4 0 -167z m196 72 c23 -20 27 -32 27 -72 0 -67 -32 -95 -109 -95
l-54 0 0 95 0 95 54 0 c43 0 61 -5 82 -23z"/>
<path d="M4180 368 c-40 -96 -110 -281 -110 -294 0 -11 8 -14 32 -12 26 2 33
9 43 38 12 35 12 35 78 38 l67 3 16 -41 c14 -36 20 -40 50 -40 19 0 34 3 33 8
0 4 -28 77 -62 162 l-62 155 -37 3 c-32 3 -40 -1 -48 -20z m69 -115 l21 -53
-44 0 -44 0 21 55 c11 31 21 54 23 53 1 -2 12 -27 23 -55z"/>
<path d="M4390 355 l0 -35 50 0 50 0 0 -130 0 -130 30 0 30 0 0 130 0 130 50
0 50 0 0 35 0 35 -130 0 -130 0 0 -35z"/>
<path d="M4714 377 c-2 -7 -3 -80 -2 -162 l3 -150 33 -3 32 -3 0 165 0 166
-30 0 c-17 0 -33 -6 -36 -13z"/>
<path d="M4945 370 c-58 -29 -79 -63 -83 -135 -2 -45 2 -69 16 -95 58 -105
237 -106 293 0 25 45 25 125 0 170 -38 71 -146 100 -226 60z m120 -54 c40 -17
55 -42 55 -93 0 -46 -19 -76 -59 -93 -64 -26 -131 20 -131 90 0 53 14 78 53
95 40 18 41 18 82 1z"/>
<path d="M5270 224 l0 -165 33 3 32 3 5 98 5 98 75 -98 c66 -85 80 -98 105
-98 l30 0 0 160 0 160 -32 3 -33 3 0 -107 0 -107 -81 107 c-70 91 -86 106
-110 106 l-29 0 0 -166z"/>
</g>
</svg>
