<?xml version="1.0" encoding="utf-8"?><svg version="1.1" id="Layer_1" xmlns="http://www.w3.org/2000/svg" xmlns:xlink="http://www.w3.org/1999/xlink" x="0px" y="0px" viewBox="0 0 122.88 122.88" style="enable-background:new 0 0 122.88 122.88" xml:space="preserve"><style type="text/css">.st0{fill-rule:evenodd;clip-rule:evenodd;}</style><g><path class="st0" d="M61.44,0c33.93,0,61.44,27.51,61.44,61.44c0,33.93-27.51,61.44-61.44,61.44S0,95.37,0,61.44 C0,27.51,27.51,0,61.44,0L61.44,0z M43.91,38.89h25.34c5.52,0,9.65,1.31,12.4,3.94c2.74,2.63,4.12,6.37,4.12,11.22 c0,4.98-1.5,8.88-4.5,11.68c-3,2.81-7.58,4.21-13.72,4.21H59.2v18.25H43.91V38.89L43.91,38.89z M59.2,59.96h3.75 c2.96,0,5.04-0.52,6.23-1.54c1.19-1.02,1.79-2.33,1.79-3.92c0-1.55-0.52-2.86-1.56-3.94c-1.03-1.08-2.99-1.62-5.85-1.62H59.2V59.96 L59.2,59.96z M61.44,13.92c26.24,0,47.52,21.27,47.52,47.52s-21.27,47.52-47.52,47.52c-26.24,0-47.52-21.27-47.52-47.52 S35.2,13.92,61.44,13.92L61.44,13.92z M61.44,5.41c30.94,0,56.03,25.08,56.03,56.03s-25.08,56.03-56.03,56.03 S5.41,92.38,5.41,61.44S30.5,5.41,61.44,5.41L61.44,5.41z"/></g></svg>