<svg viewBox="0 0 1024.001 1045.491" xmlns="http://www.w3.org/2000/svg"><path d="M129.56 21.333H894.44c71.522.076 129.482 58.036 129.558 129.55v764.89c-.076 71.523-58.036 129.483-129.55 129.56H129.557C58.036 1045.255.076 987.295 0 915.78V150.89C.076 79.37 58.036 21.41 129.55 21.334h.008zM894.442 956.29c22.366-.025 40.49-18.15 40.515-40.512V150.893c-.025-22.366-18.15-40.49-40.512-40.515H129.56c-22.366.025-40.49 18.15-40.515 40.512v764.885c.025 22.366 18.15 40.49 40.512 40.515h.002zm-154.09-451.807l-34.415-15.672C649 462.243 582.323 446.74 512.024 446.74s-136.977 15.5-196.803 43.274l2.89-1.203-34.46 15.673L156.36 313.93l28.183-25.778c84.553-83.2 199.55-135.686 326.78-139.25l.678-.014c127.91 3.578 242.906 56.063 327.523 139.328l-.065-.064 28.182 25.778zm-466.81-175.416l42.785 64.067c58.115-22.458 125.364-35.468 195.65-35.468s137.537 13.01 199.47 36.754l-3.818-1.286 42.785-64.067c-64-54.62-147.006-88.673-237.897-91.125l-.517-.01c-91.422 2.45-174.446 36.505-238.99 91.58l.532-.445zM556.523 406H467.48V278.225h89.043zm0 467.48H467.48V575.63h89.043z"/></svg>