<?xml version="1.0" encoding="utf-8"?><svg version="1.1" id="Layer_1" xmlns="http://www.w3.org/2000/svg" xmlns:xlink="http://www.w3.org/1999/xlink" x="0px" y="0px" viewBox="0 0 122.88 118.71" style="enable-background:new 0 0 122.88 118.71" xml:space="preserve"><style type="text/css">.st0{fill-rule:evenodd;clip-rule:evenodd;}</style><g><path class="st0" d="M111.78,16.6l1.12,6.31c7.58,21.49-5.89,21.71-11.21,10.23c-4.44-1.76-7.28-0.6-7.99,4.48l5.47,25.09 l-0.21,21.34c3.26-4.18,5.86-9.05,7.56-14.58c1.36-4.42,6.04-6.9,10.46-5.54c4.42,1.36,6.9,6.04,5.54,10.46 c-4.54,14.8-13.8,26.16-25.37,33.69c-10.24,6.67-22.3,10.3-34.46,10.61c-12.18,0.32-24.5-2.71-35.24-9.34 c-11.7-7.23-21.45-18.69-26.99-34.71c-1.5-4.36,0.82-9.12,5.18-10.62c4.36-1.5,9.12,0.82,10.62,5.18 c1.57,4.54,3.57,8.58,5.91,12.14l0.2-17.79c0.42-4.29,1.94-8.43,5.05-12.33h-8.97c-7.9-0.6-8.78-9.9,0-11.77h23.99 c0.34,5.05,2.53,9.6,5.89,12.97c3.67,3.67,8.74,5.94,14.34,5.94c5.6,0,10.67-2.27,14.34-5.94c3.67-3.67,5.94-8.74,5.94-14.34 c0-5.6-2.27-10.67-5.94-14.34c-2.51-2.51-5.67-4.36-9.21-5.29c3.25-6,8.69-11.37,16.8-16c7.91-3.04,16.9-3.71,28.17,0.7 c4.45,2,6.96,4.01,6.19,6.01c-0.74,1.94-2.14,1.89-3.68,2.32C112.85,12.16,111.5,13.71,111.78,16.6L111.78,16.6z M90.69,92.17 c-5.07-34.48-54.16-34.82-59.95-1.06c1.75,1.5,3.59,2.83,5.49,4.01c7.88,4.87,16.99,7.08,26.06,6.85 c9.09-0.23,18.09-2.95,25.74-7.93C88.94,93.45,89.83,92.83,90.69,92.17L90.69,92.17z M47.34,39.44h16.93 c-0.7-5.82-0.28-11.33,1.51-16.45c3,0.62,5.68,2.11,7.77,4.19c2.78,2.78,4.51,6.63,4.51,10.88c0,4.25-1.72,8.1-4.51,10.88 c-2.78,2.78-6.63,4.51-10.88,4.51c-4.25,0-8.1-1.72-10.88-4.51C49.31,46.47,47.67,43.15,47.34,39.44L47.34,39.44z M104.96,15.69 L104.96,15.69c1.12,0,2.04,0.92,2.04,2.04v1.98c0,1.12-0.92,2.04-2.04,2.04h0c-1.12,0-2.04-0.92-2.04-2.04v-1.98 C102.92,16.6,103.83,15.69,104.96,15.69L104.96,15.69z"/></g></svg>