<?xml version="1.0" encoding="utf-8"?><svg version="1.1" id="Layer_1" xmlns="http://www.w3.org/2000/svg" xmlns:xlink="http://www.w3.org/1999/xlink" x="0px" y="0px" viewBox="0 0 122.88 77.56" style="enable-background:new 0 0 122.88 77.56" xml:space="preserve"><style type="text/css"><![CDATA[
	.st0{fill:#231F20;}
	.st1{fill-rule:evenodd;clip-rule:evenodd;}
	.st2{fill:#FFFFFF;}
]]></style><g><path class="st1" d="M56.12,0c-12.4,0-23.45,5.83-30.55,14.9h-6.65C8.49,14.9,0,23.39,0,33.82v11.41 c0,10.43,8.49,18.92,18.92,18.92h7.87c7.11,8.22,17.62,13.42,29.33,13.42c11.71,0,22.22-5.2,29.33-13.42h7.58 c10.44,0,18.93-8.49,18.93-18.92V33.82c0-10.43-8.49-18.92-18.93-18.92h-6.36C79.57,5.83,68.53,0,56.12,0L56.12,0z"/><path class="st2" d="M58.56,45.22v-11.4c0-8.42,6.86-15.28,15.28-15.28h19.19c8.42,0,15.28,6.86,15.28,15.28v11.4 c0,8.42-6.86,15.28-15.28,15.28c0,0-28.19,0-42.25,0C55.49,57.06,58.56,51.49,58.56,45.22L58.56,45.22z"/><path class="st2" d="M33.62,51.14h-6.3l-1.13-5.35c-0.8-3.8-1.54-8.41-1.69-10.2c-0.15,1.79-0.88,6.4-1.69,10.2l-1.13,5.35h-6.23 L9.59,26.51h7.03l0.67,4.12c0.57,3.48,1.24,7.78,1.48,10.7c0.28-2.89,1.06-7.15,1.83-10.67l0.84-4.15h6.27l0.84,4.15 c0.77,3.52,1.54,7.78,1.83,10.67c0.24-2.92,0.91-7.21,1.48-10.7l0.67-4.12h6.97L33.62,51.14L33.62,51.14z"/><path class="st2" d="M45.67,31.33c-2.08,0-3.63-1.2-3.63-3.13c0-1.8,1.55-3.06,3.63-3.06c2.18,0,3.69,1.26,3.69,3.06 C49.36,30.13,47.85,31.33,45.67,31.33L45.67,31.33z M42.5,51.14V33.25h6.33v17.89H42.5L42.5,51.14z"/><polygon points="73.95,32.32 73.95,37.82 87.05,37.82 87.05,43.6 73.95,43.6 73.95,51.14 67.16,51.14 67.16,26.51 88.45,26.51 88.45,32.32 73.95,32.32"/><path d="M95.56,31.33c-2.07,0-3.63-1.2-3.63-3.13c0-1.8,1.55-3.06,3.63-3.06c2.18,0,3.69,1.26,3.69,3.06 C99.25,30.13,97.74,31.33,95.56,31.33L95.56,31.33z M92.39,51.14V33.25h6.33v17.89H92.39L92.39,51.14z"/><polygon class="st0" points="114.6,21.89 114.6,17.56 113.06,17.56 113.06,16.67 117.19,16.67 117.19,17.56 115.64,17.56 115.64,21.89 114.6,21.89"/><polygon class="st0" points="117.86,21.89 117.86,16.67 119.44,16.67 120.37,20.23 121.29,16.67 122.88,16.67 122.88,21.89 121.91,21.89 121.9,17.78 120.88,21.89 119.86,21.89 118.83,17.78 118.83,21.89 117.86,21.89"/></g></svg>