<?xml version="1.0" encoding="UTF-8"?>
<svg version="1.1" xmlns="http://www.w3.org/2000/svg" width="409" height="596">
<path d="M0 0 C134.97 0 269.94 0 409 0 C409 196.68 409 393.36 409 596 C274.03 596 139.06 596 0 596 C0 399.32 0 202.64 0 0 Z " fill="#FEFEFE" transform="translate(0,0)"/>
<path d="M0 0 C0.69996094 0.18191895 1.39992187 0.36383789 2.12109375 0.55126953 C40.80021461 10.77857015 74.77531747 37.10757803 95.1875 71.375 C115.49500261 106.52742015 122.51182656 146.50231946 113.2265625 186.31640625 C103.71009221 220.49712295 82.78910564 252.00554832 63 281 C62.08846447 282.34499977 61.17700503 283.69005111 60.265625 285.03515625 C48.41769148 302.45607006 35.83192844 319.29534083 23 336 C22.04922466 337.24199271 21.09867404 338.48415751 20.1484375 339.7265625 C12.06473409 350.28349794 3.8904897 360.76690536 -4.5625 371.03125 C-6.40447914 373.27468614 -8.23717834 375.52432519 -10.0625 377.78125 C-15.67520168 384.71975379 -21.3232284 391.61857999 -27.11230469 398.41088867 C-29.99735297 401.79949941 -32.82486542 405.22851022 -35.625 408.6875 C-39.91144443 413.95370315 -44.43362375 418.97698612 -49 424 C-52.67171751 428.11827775 -56.25697743 432.30219007 -59.79907227 436.5324707 C-64.24125189 441.82762381 -68.7648463 447.03142547 -73.4375 452.125 C-73.93338623 452.66922607 -74.42927246 453.21345215 -74.94018555 453.77416992 C-79.92162324 459.15677441 -79.92162324 459.15677441 -83 461 C-88.49428233 461.08721083 -88.49428233 461.08721083 -91 460 C-95.10335765 455.62917788 -97.52029113 451.29852687 -99.86328125 445.81640625 C-100.21194244 445.02185532 -100.56060364 444.22730438 -100.91983032 443.40867615 C-102.0614605 440.79781058 -103.18761086 438.18061765 -104.3125 435.5625 C-105.11566767 433.71015673 -105.91913948 431.85794531 -106.72290039 430.00585938 C-126.37663342 384.57766561 -144.71024857 338.52690962 -160.7099762 291.68136597 C-162.38999848 286.76284917 -164.10062667 281.85629442 -165.8359375 276.95703125 C-171.19175055 261.78255578 -175.93178741 246.56812062 -180 231 C-180.36304902 229.63108008 -180.72651285 228.26227012 -181.09033203 226.89355469 C-191.36557299 188.12273794 -201.37346213 147.55847337 -190 108 C-189.80245117 107.29552734 -189.60490234 106.59105469 -189.40136719 105.86523438 C-182.46831 81.65341808 -169.03336741 61.28325615 -152 43 C-151.02160156 41.92298828 -151.02160156 41.92298828 -150.0234375 40.82421875 C-138.61781261 28.78005501 -124.72175584 19.47594964 -110 12 C-109.06075684 11.51708496 -109.06075684 11.51708496 -108.10253906 11.02441406 C-75.74548006 -5.43203916 -35.09148416 -9.58400723 0 0 Z " fill="#EF6629" transform="translate(254,47)"/>
<path d="M0 0 C18.61331502 12.59463831 32.02384386 32.06425782 36.78027344 54.13720703 C40.29660822 76.15856983 35.7422511 99.47457546 23.2265625 118 C12.57085337 132.04430629 0.27336657 141.65905997 -15.8125 148.6875 C-17.00101562 149.21988281 -18.18953125 149.75226563 -19.4140625 150.30078125 C-37.94425775 157.34384261 -60.93685433 155.84764105 -78.875 147.921875 C-100.45553101 137.93205192 -115.42732083 122.57848864 -124.8125 100.6875 C-132.79749648 78.32720706 -131.86048344 55.31376149 -122.0625 33.8125 C-118.80079421 27.00822357 -114.8685833 21.30892595 -109.8125 15.6875 C-109.34585938 15.08035156 -108.87921875 14.47320312 -108.3984375 13.84765625 C-98.49882485 1.08236626 -81.32807045 -7.6351083 -65.8125 -11.3125 C-63.9871875 -11.83263672 -63.9871875 -11.83263672 -62.125 -12.36328125 C-40.94494771 -17.62381517 -18.15630031 -10.9092543 0 0 Z " fill="#FDFBFB" transform="translate(262.8125,115.3125)"/>
<path d="M0 0 C2.57085992 0.00539376 5.14154745 0.00000013 7.71240234 -0.00634766 C38.54957066 -0.0215802 38.54957066 -0.0215802 50.81005859 7.13037109 C50.62255859 9.44287109 50.62255859 9.44287109 49.81005859 12.13037109 C45.35128919 15.70648615 40.0964423 16.29098003 34.62255859 17.25537109 C33.72730469 17.42423828 32.83205078 17.59310547 31.90966797 17.76708984 C21.04665057 19.75929664 10.43162194 20.2922862 -0.59179688 20.26074219 C-2.78994813 20.25543148 -4.98789049 20.26068987 -7.18603516 20.26708984 C-33.62696067 20.28374776 -33.62696067 20.28374776 -45.43994141 17.25537109 C-46.14505859 17.09423828 -46.85017578 16.93310547 -47.57666016 16.76708984 C-51.39462238 15.83605558 -54.25458288 14.77824605 -57.18994141 12.13037109 C-56.95166016 10.25927734 -56.95166016 10.25927734 -56.18994141 8.13037109 C-40.74427413 -1.8638842 -17.68181326 -0.0440943 0 0 Z " fill="#EF6A2D" transform="translate(168.18994140625,542.86962890625)"/>
<path d="M0 0 C1.40765625 0.14115234 1.40765625 0.14115234 2.84375 0.28515625 C5.86373093 1.02682804 7.29370216 1.75031576 9.5 3.9375 C9.79272461 6.46020508 9.79272461 6.46020508 9.46484375 9.64453125 C9.33706543 10.89830566 9.20928711 12.15208008 9.07763672 13.44384766 C8.03510313 21.80525685 6.81430753 30.14058441 5.54370117 38.4699707 C5.06200295 41.62825895 4.58794485 44.78762085 4.11523438 47.94726562 C3.80773316 49.98964985 3.49980506 52.03196986 3.19140625 54.07421875 C2.98192101 55.46528084 2.98192101 55.46528084 2.76820374 56.88444519 C2.3576677 59.57086328 1.92929433 62.25402369 1.5 64.9375 C1.35319794 65.9329483 1.20639587 66.92839661 1.05514526 67.95401001 C0.89893707 68.93574188 0.74272888 69.91747375 0.58178711 70.92895508 C0.4462291 71.81706375 0.31067108 72.70517242 0.17100525 73.62019348 C-0.59385 76.26160957 -1.27884423 77.33346155 -3.5 78.9375 C-8.69451858 79.36328021 -12.64641378 79.01760838 -17.5 76.9375 C-19.5 74.9375 -19.5 74.9375 -19.71411133 71.45288086 C-19.58454273 66.47166481 -18.84912716 61.60692517 -18.07421875 56.69140625 C-17.92596146 55.72202621 -17.77770416 54.75264618 -17.62495422 53.75389099 C-17.31078467 51.70699764 -16.9937706 49.66053907 -16.67407227 47.61450195 C-16.19397234 44.54142883 -15.72214018 41.46718187 -15.25195312 38.39257812 C-14.49844238 33.48387625 -13.72100533 28.57936516 -12.93304443 23.67608643 C-12.51909056 21.0582293 -12.12790251 18.43784695 -11.74072266 15.81591797 C-11.50109088 14.28210679 -11.26074182 12.74840743 -11.01953125 11.21484375 C-10.92419601 10.52822159 -10.82886078 9.84159943 -10.7306366 9.13417053 C-9.63296337 2.42462354 -6.91464864 -0.8263385 0 0 Z " fill="#FBBE24" transform="translate(221.5,146.0625)"/>
<path d="M0 0 C3.56522806 0.4119593 5.90405246 1.0788572 8.73828125 3.31640625 C10.49151865 9.01442778 9.12600029 14.46793367 8.11328125 20.19140625 C7.73255496 22.4124492 7.35374863 24.63382186 6.9765625 26.85546875 C6.67226318 28.64259277 6.67226318 28.64259277 6.36181641 30.46582031 C5.69162758 34.60451186 5.10421096 38.74938818 4.53125 42.90234375 C4.22275021 45.07657759 3.91231666 47.25052588 3.60113525 49.42437744 C3.40197138 50.8447506 3.20979226 52.26612185 3.02484131 53.68841553 C2.76229461 55.69721957 2.47147487 57.70226578 2.1796875 59.70703125 C2.02185791 60.86235352 1.86402832 62.01767578 1.70141602 63.20800781 C0.50864812 67.0575188 -1.16655771 68.7866623 -4.26171875 71.31640625 C-7.015625 71.69140625 -7.015625 71.69140625 -9.82421875 71.31640625 C-10.75363281 71.21328125 -11.68304688 71.11015625 -12.640625 71.00390625 C-15.58306141 70.23211965 -17.0518483 69.39464706 -19.26171875 67.31640625 C-21.14472877 58.79074476 -18.32612797 48.83922491 -16.94921875 40.31640625 C-16.71700271 38.84750809 -16.48539883 37.37851304 -16.25439453 35.90942383 C-15.91072934 33.72735855 -15.5660248 31.54549194 -15.21740723 29.36421204 C-14.56400747 25.27349165 -13.94478137 21.18020625 -13.3671875 17.078125 C-13.24061768 16.20091797 -13.11404785 15.32371094 -12.98364258 14.41992188 C-12.76019648 12.86381874 -12.54456976 11.30656254 -12.33862305 9.74804688 C-11.04744122 1.04737194 -8.34899249 -0.34280631 0 0 Z " fill="#E3296C" transform="translate(174.26171875,138.68359375)"/>
<path d="M0 0 C1.04027344 -0.00773438 2.08054688 -0.01546875 3.15234375 -0.0234375 C6.46865146 0.43060731 7.67985262 1.06539463 10.0625 3.375 C11.50899479 10.72259702 9.58468035 19.05361664 8.41796875 26.359375 C8.24751541 27.45920715 8.07706207 28.55903931 7.90144348 29.69219971 C7.54156742 31.99874095 7.17747191 34.3046275 6.80932617 36.60986328 C6.24963373 40.12730185 5.70897749 43.64731537 5.16992188 47.16796875 C4.81624264 49.41944997 4.46146285 51.67075864 4.10546875 53.921875 C3.94596237 54.96680115 3.78645599 56.01172729 3.62211609 57.08831787 C2.72645385 62.60446708 1.67434647 67.40938288 -0.9375 72.375 C-4.43403999 74.12326999 -8.22387403 73.92592906 -11.91796875 72.73828125 C-16.51897321 70.79352679 -16.51897321 70.79352679 -17.9375 69.375 C-18.5428395 59.54071405 -16.67715359 49.98713284 -15.125 40.3125 C-14.86066888 38.6231499 -14.59699293 36.93369714 -14.33398438 35.24414062 C-13.68547041 31.09855765 -13.01463592 26.95699648 -12.33392334 22.81658936 C-11.93529501 20.3614194 -11.55427511 17.903921 -11.17431641 15.44580078 C-10.92548302 13.90255974 -10.67600104 12.3594231 -10.42578125 10.81640625 C-10.26737007 9.75328468 -10.26737007 9.75328468 -10.10575867 8.66868591 C-9.63900037 5.87336319 -9.20792048 3.74463047 -7.51806641 1.43481445 C-5.06020015 -0.21325435 -2.91807873 -0.02164212 0 0 Z " fill="#4F8ECB" transform="translate(247.9375,129.625)"/>
<path d="M0 0 C3.5 0.875 3.5 0.875 6 2 C9.20327782 8.40655564 6.35952932 18.24794019 5.25 25 C5.07025635 26.12051758 4.8905127 27.24103516 4.70532227 28.39550781 C4.32873996 30.74254842 3.94988257 33.08922502 3.56884766 35.43554688 C3.0048769 38.96944088 2.47252852 42.50675112 1.94921875 46.046875 C1.61201417 48.28125528 1.27477583 50.51563047 0.9375 52.75 C0.78764648 53.79027344 0.63779297 54.83054688 0.48339844 55.90234375 C-0.30997948 61.04655862 -1.04156261 65.58791065 -4 70 C-9.14469854 71.58298417 -13.03067772 70.9112778 -18 69 C-19.9375 67.875 -19.9375 67.875 -21 66 C-21.22760872 60.27099846 -20.69660632 54.89882726 -19.79296875 49.25 C-19.6669075 48.43362061 -19.54084625 47.61724121 -19.41096497 46.77612305 C-19.14392603 45.05456958 -18.87399712 43.33346215 -18.60131836 41.61279297 C-18.19317061 39.03580344 -17.79401539 36.45755251 -17.39648438 33.87890625 C-16.75052447 29.7162201 -16.08256689 25.55761532 -15.39642334 21.40136719 C-15.13308128 19.80615088 -14.87268315 18.21044567 -14.61529541 16.61425781 C-14.252634 14.38623828 -13.8732744 12.16175556 -13.48828125 9.9375 C-13.27341064 8.66777344 -13.05854004 7.39804688 -12.8371582 6.08984375 C-10.89856066 -1.06527157 -6.48171339 -0.65148397 0 0 Z " fill="#A44499" transform="translate(272,154)"/>
<path d="M0 0 C2.76579669 0.84134375 5.3282618 1.8750576 8 3 C8.93283551 8.08630092 8.90393969 12.23687612 8.07421875 17.33203125 C7.96656693 18.00868332 7.8589151 18.68533539 7.7480011 19.38249207 C7.40410537 21.52751255 7.04585787 23.66985385 6.6875 25.8125 C6.45808208 27.23748523 6.22955935 28.66261489 6.00195312 30.08789062 C5.56146957 32.82786113 5.10585066 35.56452753 4.63427734 38.29931641 C4.24436976 40.57422756 3.87109455 42.85215665 3.52587891 45.13427734 C3.30617432 46.46579834 3.30617432 46.46579834 3.08203125 47.82421875 C2.90957886 48.94509888 2.90957886 48.94509888 2.73364258 50.08862305 C1.73455288 52.69157588 0.36318532 53.58951243 -2 55 C-4.65625 55.21484375 -4.65625 55.21484375 -7.5 54.9375 C-8.4384375 54.86402344 -9.376875 54.79054687 -10.34375 54.71484375 C-13.66397147 53.82131356 -14.97671839 52.76769654 -17 50 C-18.56639983 38.19326126 -14.07836602 23.6261695 -12 12 C-11.84515137 11.12150391 -11.69030273 10.24300781 -11.53076172 9.33789062 C-11.29703857 8.14196289 -11.29703857 8.14196289 -11.05859375 6.921875 C-10.92638428 6.2319043 -10.7941748 5.54193359 -10.65795898 4.83105469 C-8.72686624 -0.54304386 -5.21287036 -0.51274135 0 0 Z " fill="#F06B2F" transform="translate(202,121)"/>
<path d="M0 0 C1.56041016 0.11021484 1.56041016 0.11021484 3.15234375 0.22265625 C6.67588566 1.08817057 7.8238031 2.11627733 10.0625 4.9375 C10.31787109 7.38842773 10.31787109 7.38842773 9.9609375 10.18359375 C9.83299805 11.24433105 9.70505859 12.30506836 9.57324219 13.39794922 C9.3204248 15.15002686 9.3204248 15.15002686 9.0625 16.9375 C8.89137695 18.20223145 8.72025391 19.46696289 8.54394531 20.77001953 C8.07323584 24.16071719 7.55476234 27.54216815 7.015625 30.92260742 C6.68326576 33.02680741 6.36899258 35.13327131 6.0546875 37.24023438 C5.84224443 38.5887152 5.62874268 39.93702977 5.4140625 41.28515625 C5.13296631 43.09512085 5.13296631 43.09512085 4.84619141 44.94165039 C4.0557258 47.96339603 3.59137894 49.16895538 1.0625 50.9375 C-1.71484375 51.37109375 -1.71484375 51.37109375 -4.875 51.375 C-5.91527344 51.39433594 -6.95554688 51.41367188 -8.02734375 51.43359375 C-10.9375 50.9375 -10.9375 50.9375 -13.31640625 49.53515625 C-17.67142627 42.55663019 -14.36054919 32.00218974 -13.0625 24.375 C-12.88847656 23.30314453 -12.71445313 22.23128906 -12.53515625 21.12695312 C-12.02844886 18.05855835 -11.4923757 14.99752156 -10.9375 11.9375 C-10.78120117 11.05465332 -10.62490234 10.17180664 -10.46386719 9.26220703 C-10.23038574 8.06700439 -10.23038574 8.06700439 -9.9921875 6.84765625 C-9.86054199 6.15937744 -9.72889648 5.47109863 -9.59326172 4.76196289 C-7.8006572 -0.22542861 -4.87861305 -0.42816011 0 0 Z " fill="#33B45A" transform="translate(191.9375,179.0625)"/>
<path d="M0 0 C3.22079767 3.88716961 2.2455802 8.37164814 1.8125 13.1875 C1.70550781 14.40695313 1.59851563 15.62640625 1.48828125 16.8828125 C0.41242224 26.33852747 0.41242224 26.33852747 -1.890625 29.59765625 C-4.90613919 31.68492542 -6.57105876 31.54914412 -10.1875 31.1875 C-11.21875 31.105 -12.25 31.0225 -13.3125 30.9375 C-16.8252594 30.02112798 -18.1361089 29.185687 -20.1875 26.1875 C-20.73934936 20.86377678 -19.79413947 15.67796684 -18.875 10.4375 C-18.75705078 9.68339844 -18.63910156 8.92929688 -18.51757812 8.15234375 C-18.01180155 5.23180825 -17.52412415 2.71574097 -15.91796875 0.1953125 C-11.34927793 -2.46546003 -4.89148977 -1.24685033 0 0 Z " fill="#34B45B" transform="translate(244.1875,206.8125)"/>
<path d="M0 0 C1.051875 0.08507812 2.10375 0.17015625 3.1875 0.2578125 C6 0.875 6 0.875 7.8515625 2.0703125 C10.38539569 6.05205036 9.44371759 11.35608663 9 15.875 C8.02955162 19.49551895 6.68388202 22.19111798 4 24.875 C-0.19443946 25.50952228 -4.01138077 25.22513598 -8 23.8125 C-10.21775307 21.66405171 -10.84370583 20.18898218 -11.07421875 17.11328125 C-10.68901208 5.49625901 -10.68901208 5.49625901 -7.796875 1.0078125 C-5.11769973 -0.68123278 -3.1117241 -0.29744422 0 0 Z " fill="#508FCB" transform="translate(209,228.125)"/>
</svg>
